<svg xmlns="http://www.w3.org/2000/svg" viewBox="0 0 100 100" width="100" height="100">
  <rect width="100" height="100" rx="22" fill="#0b0f19"/>
  <g stroke-linecap="round" stroke-linejoin="round" fill="none">
    <path d="M46 25 C32 25, 22 34, 24 50 C26 62, 36 65, 46 72" stroke="#00d2ff" stroke-width="6.5"/>
    <path d="M46 38 C36 38, 32 42, 34 50 C36 56, 40 56, 46 59" stroke="#00a2ff" stroke-width="4.5"/>
    <path d="M54 25 C68 25, 78 34, 76 50 C74 62, 64 65, 54 72" stroke="#b624ff" stroke-width="6.5"/>
    <path d="M54 38 C64 38, 68 42, 66 50 C64 56, 60 56, 54 59" stroke="#df24ff" stroke-width="4.5"/>
    <circle cx="50" cy="32" r="3.5" fill="#00d2ff"/>
    <circle cx="50" cy="50" r="4.5" fill="#ffffff"/>
    <circle cx="50" cy="65" r="3.5" fill="#b624ff"/>
  </g>
</svg>
